<?xml version="1.0" encoding="UTF-8"?>
<!DOCTYPE svg PUBLIC "-//W3C//DTD SVG 1.1//EN" "http://www.w3.org/Graphics/SVG/1.1/DTD/svg11.dtd">
<!-- Creator: CorelDRAW 2021.5 -->
<svg xmlns="http://www.w3.org/2000/svg" xml:space="preserve" width="42.3332mm" height="42.3332mm" version="1.1" style="shape-rendering:geometricPrecision; text-rendering:geometricPrecision; image-rendering:optimizeQuality; fill-rule:evenodd; clip-rule:evenodd"
viewBox="0 0 3310.1 3310.1"
 xmlns:xlink="http://www.w3.org/1999/xlink"
 xmlns:xodm="http://www.corel.com/coreldraw/odm/2003">
 <defs>
  <style type="text/css">
   <![CDATA[
    .fil1 {fill:white}
    .fil0 {fill:#7D45FF;fill-opacity:0.788235}
    .main-shape {fill:#000}
    @media (prefers-color-scheme: dark) {
     .main-shape {fill:#fff}
    }
   ]]>
  </style>
 </defs>
 <g id="Layer_x0020_1">
  <metadata id="CorelCorpID_0Corel-Layer"/>
  <g id="_1950669725232">
   <path class="fil0" d="M2648.3 2721.08l-0.03 -655.5c-0.3,-1.65 -1.06,-1.76 -2.18,-3.15 -1.74,-2.17 -3.17,-3.7 -4.92,-5.76l-162.62 -194.02c-1.5,-1.86 -3.15,-3.47 -4.71,-5.47l-81.44 -97.12c-1.57,-1.99 -3.18,-3.66 -4.65,-5.54l-48.24 -57.53c-1.45,-1.85 -3.17,-4.23 -5.14,-5.54l-21.72 26.32c-4.7,5.27 -8.77,10.85 -13.57,16.01l-21.85 26.19c-1.13,1.28 -1.81,2.13 -2.92,3.39 -10.25,11.77 -19.83,24.15 -30.08,35.91l-10.89 12.89c-10.34,11.86 -19.87,24.39 -30.34,36.14l-27.19 32.49c-1.95,2.24 -3.55,4.45 -5.57,6.57 -3.12,3.28 -8.59,9.56 -11.04,13.22 2.03,3.03 4.85,5.87 7.22,8.8 1.24,1.53 2.48,2.88 3.79,4.45 1.36,1.61 2.34,2.93 3.7,4.55 8.34,9.91 21.61,24.96 29.73,35.29 4.87,6.2 9.94,11.63 14.83,17.68 4.6,5.68 24.56,30.02 29.65,35.37 5.26,5.52 9.8,11.94 14.81,17.69 5.15,5.9 9.75,11.67 14.82,17.69 19.93,23.68 39.45,46.97 59.39,70.65 12.35,14.68 24.32,29.67 36.91,44.12 1.39,1.6 2.45,2.8 3.86,4.39 1.88,2.12 1.62,2.96 1.59,6.66 -0.09,10.82 0,21.68 0,32.51 0,173.55 0,347.1 0,520.65l268.81 0z"/>
   <path class="fil0" d="M1741.91 1403.22c1.6,-1.07 1.55,-1.62 2.8,-3.03l145.3 -173c3.75,-4.3 24.98,-29.26 27.55,-33.11 -2.64,-3.03 -5.25,-5.97 -7.83,-9.15 -2.67,-3.31 -5.24,-6.17 -7.9,-9.57l-35.63 -42.49c-1.24,-1.54 -2.71,-3.12 -4.06,-4.68 -1.42,-1.62 -2.51,-3.13 -3.93,-4.81 -1.42,-1.68 -2.67,-3.01 -4.07,-4.66 -1.35,-1.6 -2.34,-2.95 -3.69,-4.56l-45.84 -54.6c-0.87,-0.99 -1.17,-1.39 -1.99,-2.38 -1.31,-1.62 -2.71,-3.1 -4.02,-4.71 -0.81,-1 -1.11,-1.4 -1.98,-2.38l-65.29 -77.86c-1.38,-1.59 -2.77,-3.17 -3.99,-4.75 -2.45,-3.15 -5.31,-6.07 -7.76,-9.22l-11.98 -14.22c-1.42,-1.68 -2.51,-3.18 -3.93,-4.81l-31.93 -37.95c-1.36,-1.73 -2.54,-3.17 -3.96,-4.77l-75.06 -89.44c-8.93,-11.41 -18.76,-22.02 -27.87,-33.27l-27.87 -33.26c-5.19,-6.12 -19.07,-23.25 -23.75,-28.16l-75.46 -90c-1.38,-1.59 -2.77,-3.17 -4,-4.75 -5.75,-7.4 -19.13,-21.69 -23.77,-28.63l-351.3 0c4.48,6.7 20.01,23.51 26.48,31.75l15.89 19.06c0.97,1.16 1.69,2.06 2.65,3.17l50.72 60.4c1.85,2.21 3.42,4.21 5.31,6.33l32.11 38.25c11.06,14.06 23.06,27.42 34.58,41.11l13.46 16.14c0.97,1.24 1.66,1.99 2.64,3.19l7.98 9.48c1.85,2.21 3.42,4.21 5.31,6.33l144.35 172.01c1.97,2.07 3.42,4.16 5.33,6.31 1.89,2.12 3.46,4.13 5.32,6.33l31.84 38.03c0.97,1.16 1.69,2.07 2.65,3.17l23.95 28.45c1.81,2.24 3.54,4.1 5.34,6.31 6.33,7.81 26.3,32.22 32.07,38.28 1.13,1.19 1.56,1.91 2.67,3.15l5.31 6.33c0.97,1.15 1.77,2.09 2.65,3.18l50.73 60.39c1.03,1.23 1.87,2.2 2.85,3.45l31.87 38c1.92,2.16 3.42,4.14 5.32,6.33l21.45 25.62c10.25,13.04 21.47,25.51 32.15,38.2l21.16 25.43c1.06,1.25 1.64,1.81 2.71,3.12l7.95 9.52c5.68,6.11 10.85,12.81 16.22,19.2 0.97,1.15 1.76,2.09 2.64,3.17 0.98,1.2 1.67,1.95 2.64,3.19 1.06,1.35 1.7,1.98 2.64,3.19 1.74,2.25 22.45,27.41 24.26,28.63z"/>
  </g>
  <path class="fil1 main-shape" d="M1655.05 0c914.06,0 1655.05,740.99 1655.05,1655.05 0,914.06 -740.99,1655.05 -1655.05,1655.05 -914.06,0 -1655.05,-740.99 -1655.05,-1655.05 0,-914.06 740.99,-1655.05 1655.05,-1655.05zm422.15 1054.34c0,2.56 -3.11,5.07 -4.7,6.94 -0.97,1.15 -1.77,2.09 -2.64,3.18l-122.85 146.45c-7.28,8.66 -15,17.16 -21.96,26.07l-21.92 26.12c-1.02,1.09 -1.63,1.99 -2.66,3.17 -0.95,1.09 -1.68,2.01 -2.65,3.17l-10.82 12.95c-0.94,1.21 -1.57,1.85 -2.64,3.19l-90.38 107.59c-0.97,1.16 -1.76,2.09 -2.64,3.18 -0.98,1.2 -1.67,1.95 -2.64,3.18l-11.03 13.23c-0.98,1.16 -1.7,2.07 -2.65,3.17 -8.55,9.81 -19.49,22.46 -27.49,32.68l-89.89 107.11c-1.96,2.33 -3.71,4.28 -5.56,6.58 -14.22,17.56 -29.33,34.47 -43.53,52.05l-11.11 13.15c-8.55,8.98 -23.22,28.35 -32.75,39.06l-11.1 13.16c-3.62,4.47 -7.22,8.38 -10.81,12.96l-24.39 28.99c-1.04,1.23 -1.88,2.21 -2.86,3.45 -1.87,2.39 -3.77,4.31 -5.54,6.59 -1.67,2.15 -3.48,4.17 -5.27,6.37 -1.85,2.29 -3.6,4.25 -5.55,6.58l-38.31 45.63c-2.02,2.27 -3.5,4.33 -5.58,6.56 -1.02,1.09 -1.63,1.99 -2.66,3.17l-13.48 16.12c-6.91,8.9 -14.53,17.59 -21.94,26.1 -0.96,1.09 -1.68,2.01 -2.65,3.17l-19.23 22.99c-1.93,2.3 -3.57,4.36 -5.54,6.58 -13.12,14.73 -25.12,30.5 -38.09,45.37l-24.52 29.34c-1.14,1.27 -1.81,2.13 -2.92,3.39 -3.79,4.36 -7.05,8.56 -10.9,12.88l-43.55 52.03c-1.67,2.15 -3.71,4.2 -5.34,6.31l-60.44 72.02c-3.6,4.58 -7.19,8.49 -10.81,12.96l-5.3 6.34c-12.09,13.87 -23.34,28.36 -35.42,42.22 -1.11,1.27 -1.76,2.22 -2.89,3.41 -2.03,2.13 -3.62,4.33 -5.57,6.57l-19.02 22.71c-11.32,14.47 -24.09,27.73 -35.42,42.22l-49.39 58.81c-0.96,1.1 -1.68,2.01 -2.65,3.17l-46.45 55.45c-7.02,8.93 -14.63,17.35 -21.96,26.08l-54.38 64.98c-2.03,2.28 -3.57,4.31 -5.58,6.56 -11.41,12.8 -21.6,26.49 -33,39.3l-10.89 12.89c-0.95,1.13 -1.76,2.1 -2.64,3.18l-13.67 16.42c-0.98,1.16 -1.7,2.06 -2.66,3.17l-27.28 32.4c-0.93,1.2 -1.81,2.19 -2.84,3.46 -0.89,1.09 -1.67,2.03 -2.64,3.17l-30.14 35.85c-0.96,1.24 -1.67,1.99 -2.64,3.19l-8.44 10c-6.95,7.29 -20.36,24.35 -27.2,32.48l-13.55 16.05c-12.15,13.94 -23.73,28.32 -35.65,42.47l-11.03 13.23c-0.92,1.17 -1.71,2.07 -2.65,3.19 -0.66,0.79 -3.38,2.84 -0.54,2.84l348.39 0c1.47,0 6.74,-6.96 7.97,-8.53 8.95,-11.42 18.72,-22.4 28.09,-33.54 0.97,-1.16 1.69,-2.06 2.65,-3.17 11.39,-13.07 21.94,-26.87 33.47,-39.81l53.83 -64.07c0.97,-1.16 1.76,-2.09 2.64,-3.18l10.19 -12.13c1.78,-2.21 3.6,-4.22 5.27,-6.38 8.16,-10.49 17.25,-20.24 25.65,-30.64l5.13 -6.03c6.53,-8.31 13.86,-15.94 20.38,-24.26 1.72,-2.2 3.34,-3.96 5.07,-6.1l25.9 -30.86c1.84,-2.06 3.3,-3.98 5.11,-6.05l71.99 -85.71c8.52,-10.52 17.46,-20.24 25.86,-30.91 1.73,-2.21 3.32,-3.96 5.06,-6.11 0.91,-1.13 1.59,-1.67 2.49,-2.84l12.82 -15.32c7.95,-10.16 17.26,-20.64 25.66,-30.63l15.5 -18.46c1.84,-2.06 3.3,-3.98 5.11,-6.06 17.37,-19.93 34.32,-40.89 51.39,-61.18 0.98,-1.16 1.76,-2.09 2.65,-3.18 0.97,-1.2 1.67,-1.95 2.64,-3.18 1.73,-2.21 3.41,-3.92 5.13,-6.04l15.46 -18.51c6.58,-8.47 13.9,-16.04 20.58,-24.54 1.73,-2.2 3.33,-3.96 5.06,-6.1l22.81 -27.17c0.88,-1.08 1.69,-2.06 2.64,-3.18l10.42 -12.39c1.91,-2.14 3.26,-3.84 5.11,-6.04l10.2 -12.14c8.64,-10.28 17,-20.81 25.92,-30.84 7.09,-7.97 13.6,-16.47 20.62,-24.52l41.13 -49.11c3.21,-4.12 6.97,-7.99 10.2,-12.13 6.5,-8.37 14,-16.17 20.58,-24.54 1.73,-2.2 3.34,-3.96 5.07,-6.1l40.97 -48.78c13.75,-16.36 27.16,-32.95 41.21,-49.05 8.4,-9.64 18.02,-20.83 25.89,-30.89 11.87,-15.17 29.13,-33.76 41.17,-49.08 1.73,-2.2 3.33,-3.96 5.06,-6.1l33.22 -39.56c0.95,-1.13 1.71,-2.13 2.65,-3.17l30.81 -36.64c3.67,-4.11 6.76,-8.26 10.42,-12.38 7.1,-7.97 13.51,-16.54 20.62,-24.51l17.91 -21.39c7.56,-9.34 15.88,-18.28 23.22,-27.73 9.77,-12.56 20.94,-24.11 30.78,-36.67l40.93 -48.83c1.85,-2.12 3.28,-3.88 5.11,-6.05l15.51 -18.46c11.88,-13.34 24.4,-29.06 36.12,-42.97l25.65 -30.63c3.44,-4.38 7.08,-8.15 10.4,-12.41 9.76,-12.56 20.94,-24.11 30.78,-36.67l17.68 -21.14c0.88,-1.08 1.68,-2.05 2.64,-3.18l7.77 -9.21c6.77,-8.05 22.42,-27.52 28.35,-33.76 7.04,-7.38 13.76,-16.65 20.61,-24.51l15.53 -18.44c0.93,-1.03 1.46,-1.81 2.42,-2.92l12.85 -15.29c7.9,-9.38 18.9,-21.95 25.87,-30.91 0.79,-1.02 20.38,-23.51 20.38,-24.74l0 -564.32 -268.81 0 0 465.33zm571.11 -465.33l-268.81 0 0 562.85c0,4.37 -0.04,8.76 0.02,13.12 0.06,5.18 -1.04,4.51 -4.72,8.86 -2.1,2.49 -3.89,4.71 -5.9,7.2l-6.25 7.33c-0.85,0.91 -0.82,1.03 -1.52,1.88l-38.06 45.4c-1.13,1.34 -1.97,2.38 -3.12,3.67l-49.13 58.59c-1.09,1.42 -1.9,2.11 -3.12,3.68l-36.78 43.77c-1.04,1.2 -2.08,2.43 -3.08,3.71 -10.77,13.71 -22.66,26.61 -33.62,40.14l-9.14 10.75c-2.2,2.6 -3.93,4.86 -6.11,7.47 -4.17,4.95 -8.17,9.4 -12.19,14.5l-36.77 43.77c-1.11,1.27 -1.78,2.11 -2.92,3.39l-58.46 69.65c-7.22,8.52 -13.99,17.39 -21.39,25.69l-52.1 61.93c-4.03,4.97 -7.94,9.67 -12.17,14.51 -0.99,1.13 -1.96,2.31 -2.87,3.44 -11.04,13.63 -22.79,26.77 -33.83,40.41l-12.2 14.49c-9.69,12.46 -20.92,23.9 -30.57,36.39l-22.95 27.52c-0.63,0.75 -1.02,0.99 -1.65,1.74 -2.2,2.6 -3.93,4.86 -6.11,7.47l-42.76 50.89c-1.01,1.27 -2.04,2.52 -3.09,3.71l-137.76 164.05c-4.18,4.96 -7.87,9.7 -12.15,14.53 -8.92,10.02 -21.5,25.65 -30.55,36.41l-42.96 51.18c-0.98,1.12 -1.96,2.31 -2.87,3.44l-36.7 43.85c-10.55,11.84 -20.15,24.43 -30.57,36.38l-95 113.16c-10.78,13.72 -22.65,26.59 -33.62,40.14l-29.25 34.8c-0.69,0.85 -0.66,0.98 -1.51,1.89l-9.09 10.8c-1.09,1.41 -1.89,2.1 -3.12,3.68 -0.99,1.27 -2.05,2.52 -3.08,3.71 -2.08,2.38 -4.04,4.68 -6,7.11l-12.17 14.51c-0.77,0.88 -0.76,1.04 -1.49,1.91l-29.3 34.74c-8.21,9.75 -16.08,19.83 -24.54,29.32 -1.15,1.29 -2,2.34 -3.12,3.68l-79.45 94.74c-0.7,0.89 -0.91,1.01 -1.59,1.81l-68.84 82.06c-2.12,2.69 -3.99,4.79 -6.18,7.4 -2.1,2.51 -3.89,4.58 -6.01,7.09 -1.1,1.31 -2.11,2.51 -3.06,3.74 -1.09,1.41 -1.9,2.1 -3.12,3.67 -1,1.27 -2.05,2.53 -3.08,3.71l-9.34 11.05c-0.93,1.21 -1.81,2.19 -2.84,3.47l-9.35 11.02c-2.06,2.55 -3.97,4.98 -6.14,7.46 -1.85,2.12 -5.18,4.85 -5.93,7.65l3.61 0 3.62 0 3.61 0 3.62 0 3.61 0 3.62 0 3.61 0 3.62 0 3.61 0 3.62 0 3.61 0 3.62 0 3.61 0 3.62 0 3.61 0 3.62 0 3.61 0 3.62 0 3.62 0 3.61 0 3.62 0 3.61 0 3.62 0 3.61 0 3.62 0 3.61 0 3.61 0 3.62 0 3.62 0 3.61 0 3.62 0 3.61 0 3.62 0 3.61 0 3.62 0 3.61 0 3.62 0 3.61 0 3.62 0 3.61 0 3.62 0 3.61 0 3.62 0 3.61 0 3.62 0 3.61 0 3.62 0 3.61 0 3.62 0 3.61 0 3.62 0 3.61 0 3.62 0 3.61 0 3.62 0 3.61 0 3.62 0 3.61 0 3.62 0 3.61 0 3.62 0 3.61 0 3.62 0 3.61 0 1.81 0c36.92,-0.01 73.92,-0.25 110.83,0l3.88 0c4.42,-0.23 4.36,-2.34 7.35,-5.7 13.28,-14.91 26.7,-32.07 39.81,-47.53l23.03 -27.43c9.08,-10.18 17.36,-21.14 26.43,-31.31l11.46 -13.77c8.08,-10 16.88,-19.44 24.61,-29.74 1.1,-1.48 2.07,-2.58 3.27,-4l9.98 -11.86c10.75,-13.28 22.24,-26.02 32.99,-39.31 2.21,-2.72 4.45,-5.08 6.66,-7.91 1.22,-1.56 2.03,-2.26 3.11,-3.67 0.97,-1.25 2.18,-2.72 3.29,-4l9.96 -11.87c1.2,-1.43 2.14,-2.53 3.35,-3.93 1.11,-1.27 2.32,-2.74 3.28,-3.99 1.09,-1.42 2.12,-2.46 3.33,-3.95l131.94 -157.26c6.77,-7.76 13.05,-16.11 19.89,-23.78l19.73 -23.46c7.87,-10.01 16.62,-19.35 24.61,-29.25l5.12 -6.04c1.22,-1.45 2.08,-2.51 3.27,-4.01l16.4 -19.51c10.17,-11.67 19.7,-23.98 29.87,-35.64l19.72 -23.46c6.89,-8.8 14.29,-17.03 21.48,-25.59l123.75 -147.48c2.38,-2.67 4.26,-5.24 6.58,-7.98l23.03 -27.43c1.27,-1.42 2.13,-2.48 3.39,-3.89l13.3 -15.82c5.69,-7.03 13.82,-17.16 19.7,-23.48l80.78 -96.33c0.83,-0.95 0.89,-1.23 1.72,-2.16 1.27,-1.42 2.13,-2.48 3.39,-3.89 2.37,-2.67 4.25,-5.24 6.58,-7.98l112.3 -133.71c10.01,-11.24 19.65,-23.66 29.38,-35.15l16.69 -19.7c1.22,-1.45 2.08,-2.5 3.27,-4.01 0.7,-0.88 0.91,-1.01 1.58,-1.81l54.65 -65.21c9.84,-11.7 20.11,-23 29.45,-35.08 1.09,-1.41 2.12,-2.45 3.33,-3.95 9.65,-11.95 20.24,-23.24 29.67,-35.35l13.25 -15.87c7.76,-9.16 15.27,-18.7 23.27,-27.68l16.44 -19.47c1.18,-1.45 2.09,-2.56 3.26,-4.02 10.76,-13.28 22.25,-26.02 33,-39.3 2.21,-2.72 4.45,-5.08 6.65,-7.91 8.41,-10.74 17.78,-20.8 26.34,-31.4 2.21,-2.72 4.44,-5.07 6.65,-7.9 1.17,-1.49 2.06,-2.6 3.26,-4.02l23.06 -27.41c0.86,-0.94 1.31,-1.88 1.55,-2.98l0 -10.03 0 -665.72zm-1986.5 0l58.23 69.39c5.5,7.07 11.72,13.53 17.26,20.59 1.17,1.49 2.06,2.59 3.26,4.01l25.94 30.82c0.84,0.95 0.93,1.04 1.77,2.11l30.97 36.96c2.4,2.59 4.64,5.33 6.87,8.16 7.5,9.54 26.6,31.64 34.58,41.12l13.67 16.41c2.28,2.82 4.64,5.29 6.93,8.11l13.67 16.42c1.27,1.51 2.31,2.67 3.58,4.18l44.69 53.33c1.2,1.39 2.15,2.49 3.35,3.93l48.26 57.53c1.31,1.62 2.21,2.54 3.53,4.23l20.78 24.83c2.4,2.59 4.64,5.33 6.87,8.17 2.33,2.96 4.52,5.27 6.93,8.11 2.41,2.85 4.35,5.47 6.81,8.23 0.79,0.88 0.84,1.06 1.51,1.88l108.76 129.49c2.15,2.78 4.6,5.39 6.86,8.18 6.71,8.28 13.99,16.13 20.6,24.54l8.38 10.05c0.7,0.86 1.05,1.12 1.81,2.08 6.61,8.41 14.07,16.12 20.59,24.54 5.46,7.07 11.72,13.54 17.26,20.59l13.92 16.65c1.27,1.42 2.12,2.47 3.39,3.89 7.68,8.61 14.72,17.98 22.32,26.69 0.83,0.95 0.88,1.23 1.72,2.16l55.15 65.67c2.29,2.92 4.54,5.29 6.92,8.12l27.66 33c2.42,2.86 4.4,5.41 6.84,8.21l8.47 9.97c4.2,4.71 7.77,9.96 12.14,14.54 0.88,0.92 0.76,0.86 1.54,1.86l48.25 57.53c0.69,0.86 1.05,1.12 1.8,2.08 1.21,1.54 2.26,2.85 3.5,4.27l27.66 33c7.12,7.99 13.5,16.52 20.62,24.51 1.26,1.42 2.11,2.47 3.38,3.89l13.89 16.68c1.16,1.43 2.33,2.77 3.57,4.19l13.68 16.4c8.8,11.2 18.59,21.6 27.52,32.64 1.93,2.38 11.7,14.89 14,16.57 1.34,-0.89 1.95,-1.66 2.92,-2.91l27.23 -32.44c1.04,-1.28 1.91,-2.26 2.85,-3.46l11.05 -13.21c7.83,-8.97 22.44,-26.03 29.92,-35.58l46.74 -55.65c1.02,-1.09 1.63,-1.99 2.66,-3.17l49.32 -58.89c0.61,-0.76 2.38,-2.89 2.98,-3.33 -1.38,-2.06 -3.47,-4.48 -5.21,-6.43l-22.11 -26.41c-0.97,-1.16 -1.69,-2.07 -2.65,-3.17l-14.04 -16.53c-0.95,-1.13 -1.77,-2.1 -2.64,-3.18l-46.66 -55.72c-1.93,-2.3 -3.57,-4.36 -5.54,-6.58 -8.33,-9.35 -20.08,-25.03 -27.66,-32.99 -2.02,-2.13 -3.62,-4.33 -5.57,-6.57l-8.2 -9.74c-6.9,-8.52 -14.77,-18.47 -22.14,-26.39l-21.84 -26.19c-1.14,-1.28 -1.81,-2.13 -2.92,-3.39l-11.13 -13.14c-0.95,-1.13 -1.76,-2.1 -2.64,-3.18l-27.66 -33c-1.03,-1.27 -1.91,-2.26 -2.84,-3.46 -9.95,-12.88 -22.93,-26.51 -33.2,-39.58l-37.01 -44.03c-0.75,-0.9 -0.7,-1.01 -1.49,-1.91l-11.15 -13.1c-1.02,-1.1 -1.63,-1.99 -2.66,-3.17 -0.98,-1.13 -1.95,-2.31 -2.87,-3.44l-27.66 -32.99c-11.56,-14.32 -24.32,-28.04 -35.63,-42.49l-8.39 -10.06c-0.88,-1.09 -1.67,-2.03 -2.64,-3.17l-19.33 -22.89c-1.88,-2.34 -3.58,-4.24 -5.47,-6.66 -11.18,-14.31 -26.71,-31.22 -38.54,-45.88l-41.43 -49.32c-0.97,-1.12 -1.96,-2.31 -2.87,-3.43 -1.88,-2.33 -3.66,-4.18 -5.54,-6.58l-77.24 -92.11c-8.86,-9.3 -16.2,-19.99 -24.76,-29.59 -7.3,-8.19 -18.12,-20.76 -24.86,-29.49 -0.94,-1.21 -1.57,-1.84 -2.64,-3.19l-47.2 -56.16c-4.68,-5.56 -18.67,-21.6 -21.98,-26.54l-351.31 0zm1986.5 2132.06l-0.04 -655.5c-0.3,-1.64 -1.06,-1.75 -2.18,-3.15 -1.74,-2.17 -3.17,-3.69 -4.92,-5.76l-162.62 -194.01c-1.5,-1.87 -3.14,-3.48 -4.71,-5.47l-81.44 -97.12c-1.57,-1.99 -3.18,-3.66 -4.64,-5.54l-48.24 -57.53c-1.45,-1.85 -3.17,-4.23 -5.13,-5.54l-21.72 26.32c-4.71,5.27 -8.77,10.85 -13.58,16.02l-21.84 26.19c-1.14,1.28 -1.81,2.13 -2.92,3.39 -10.26,11.77 -19.83,24.15 -30.09,35.91l-10.89 12.89c-10.34,11.86 -19.87,24.39 -30.33,36.14l-27.2 32.5c-1.95,2.23 -3.54,4.44 -5.56,6.56 -3.13,3.28 -8.59,9.56 -11.04,13.22 2.03,3.03 4.85,5.87 7.21,8.8 1.24,1.53 2.48,2.88 3.8,4.45 1.36,1.61 2.34,2.93 3.7,4.55 8.34,9.91 21.6,24.97 29.72,35.29 4.87,6.2 9.94,11.63 14.83,17.68 4.6,5.68 24.56,30.02 29.65,35.37 5.27,5.53 9.81,11.94 14.82,17.69 5.14,5.9 9.75,11.67 14.81,17.69 19.94,23.68 39.46,46.97 59.39,70.65 12.35,14.68 24.32,29.67 36.91,44.12 1.39,1.6 2.46,2.8 3.86,4.39 1.88,2.12 1.62,2.96 1.59,6.66 -0.08,10.83 0,21.68 0,32.51 0,173.55 0,347.1 0,520.65l268.81 0zm-906.4 -1317.86c1.6,-1.07 1.55,-1.61 2.8,-3.03l145.3 -173c3.75,-4.3 24.97,-29.26 27.55,-33.11 -2.64,-3.03 -5.25,-5.97 -7.83,-9.15 -2.67,-3.31 -5.24,-6.17 -7.9,-9.57l-35.63 -42.49c-1.24,-1.54 -2.71,-3.12 -4.06,-4.68 -1.42,-1.62 -2.51,-3.13 -3.93,-4.81 -1.42,-1.68 -2.67,-3.01 -4.07,-4.66 -1.35,-1.6 -2.34,-2.95 -3.69,-4.56l-45.84 -54.6c-0.87,-0.99 -1.17,-1.39 -1.98,-2.38 -1.31,-1.62 -2.71,-3.1 -4.02,-4.71 -0.81,-1 -1.12,-1.4 -1.99,-2.38l-65.28 -77.86c-1.39,-1.59 -2.77,-3.17 -4,-4.75 -2.45,-3.15 -5.31,-6.07 -7.76,-9.22l-11.98 -14.22c-1.42,-1.68 -2.5,-3.18 -3.93,-4.81l-31.93 -37.95c-1.35,-1.73 -2.53,-3.17 -3.96,-4.77l-75.06 -89.44c-8.92,-11.41 -18.76,-22.02 -27.87,-33.27l-27.87 -33.26c-5.18,-6.12 -19.07,-23.25 -23.75,-28.16l-75.46 -90c-1.38,-1.59 -2.77,-3.17 -3.99,-4.75 -5.76,-7.4 -19.13,-21.69 -23.78,-28.63l-351.3 0c4.49,6.7 20.01,23.51 26.48,31.75l15.89 19.06c0.97,1.16 1.69,2.06 2.65,3.17l50.72 60.4c1.85,2.21 3.42,4.21 5.31,6.33l32.11 38.25c11.06,14.06 23.06,27.42 34.58,41.11l13.46 16.14c0.97,1.24 1.66,1.99 2.64,3.19l7.98 9.48c1.85,2.21 3.42,4.21 5.31,6.33l144.35 172.01c1.97,2.07 3.42,4.16 5.33,6.31 1.89,2.12 3.46,4.13 5.32,6.33l31.84 38.03c0.97,1.16 1.69,2.07 2.65,3.17l23.95 28.45c1.81,2.24 3.55,4.1 5.34,6.31 6.33,7.81 26.31,32.22 32.08,38.28 1.13,1.19 1.55,1.91 2.66,3.15l5.32 6.33c0.96,1.15 1.76,2.09 2.64,3.18l50.73 60.39c1.04,1.23 1.87,2.2 2.85,3.45l31.87 38c1.92,2.16 3.42,4.14 5.32,6.33l21.45 25.62c10.25,13.04 21.47,25.51 32.16,38.2l21.16 25.43c1.06,1.25 1.63,1.81 2.7,3.12l7.95 9.52c5.68,6.11 10.85,12.81 16.22,19.2 0.97,1.15 1.76,2.09 2.64,3.17 0.98,1.2 1.67,1.95 2.64,3.19 1.06,1.35 1.7,1.99 2.64,3.19 1.74,2.25 22.45,27.41 24.26,28.63zm218.83 734.14l30.02 35.49c7.1,8.8 18.45,21.34 24.81,29.53 10.03,12.9 25.11,29.07 35.22,41.93l25.04 29.78c2.08,2.47 1.36,5.44 1.36,9.8l0 427.48c0,4.59 -0.9,9.7 1.46,9.7l267.35 0 0 -542.48c0,-1.3 -4.91,-6.62 -6.03,-8.05l-6.7 -7.86c-0.8,-0.89 -0.74,-1 -1.49,-1.9l-17.93 -21.38c-1.26,-1.42 -2.11,-2.47 -3.38,-3.89 -9.02,-10.12 -20.34,-24.99 -29.61,-35.41 -1.15,-1.29 -2,-2.34 -3.13,-3.68l-3.34 -3.93c-2.2,-2.81 -4.31,-5.29 -6.62,-7.94 -10.7,-12.28 -22.1,-27.09 -32.76,-39.05 -2.37,-2.67 -4.25,-5.24 -6.58,-7.98l-26.18 -31.07c-2.35,-2.64 -4.4,-5.24 -6.6,-7.95l-40.76 -48.53c-0.7,-0.86 -1.05,-1.12 -1.81,-2.08l-16.7 -19.69c-1.67,1.12 -3.97,4.36 -5.49,6.16l-16.62 19.77c-1.81,2.31 -3.52,3.99 -5.34,6.3l-8.17 9.78c-0.98,1.24 -1.82,2.22 -2.86,3.45l-10.88 12.89c-11.19,12.57 -23.93,29.03 -35.65,42.47l-24.77 29.58c-1.92,2.16 -3.42,4.14 -5.32,6.33l-60.54 72.41z"/>
 </g>
</svg>
